<svg xmlns="http://www.w3.org/2000/svg" viewBox="25 -1517 7953 2016" role="img" aria-label="crew.day">
<title>crew.day</title>
<g transform="scale(1 -1)" fill="currentColor">
<path transform="translate(0 0)" d="M938 675Q938 610 895.0 567.5Q852 525 778 525Q706 525 667.0 566.0Q628 607 628 678V735Q628 800 597.0 836.5Q566 873 514 873Q466 873 428.0 838.0Q390 803 368.5 736.5Q347 670 347 575Q347 450 385.5 364.5Q424 279 491.5 235.0Q559 191 646 191Q728 191 787.5 221.5Q847 252 880 317Q893 332 901.0 337.0Q909 342 917 342Q928 341 933.0 330.5Q938 320 938 305Q928 210 872.5 135.5Q817 61 725.0 19.0Q633 -23 514 -23Q379 -23 273.5 32.0Q168 87 107.0 190.5Q46 294 46 439Q46 585 109.0 700.0Q172 815 284.5 881.5Q397 948 548 948Q672 948 759.0 911.5Q846 875 892.0 813.0Q938 751 938 675Z"/>
<path transform="translate(925 0)" d="M446 530Q446 669 486.0 762.0Q526 855 590.0 901.5Q654 948 726 948Q816 948 864.5 893.0Q913 838 913 731Q913 629 869.0 580.0Q825 531 757 531Q690 531 657.5 566.5Q625 602 623 668V705Q622 732 610.5 747.0Q599 762 573 762Q547 762 524.0 737.5Q501 713 487.0 662.5Q473 612 473 532ZM461 895 473 630V131Q473 108 481.5 96.0Q490 84 514 80L603 64Q620 61 627.5 53.0Q635 45 635 31Q635 16 625.0 8.0Q615 0 595 0H92Q71 0 61.0 8.5Q51 17 51 31Q51 41 58.0 49.5Q65 58 79 63L116 72Q131 77 137.5 89.0Q144 101 144 125V741Q144 760 138.5 769.0Q133 778 120 780L74 783Q61 786 55.5 793.0Q50 800 50 811Q50 823 57.5 831.0Q65 839 84 845L345 921Q381 935 397.5 939.0Q414 943 425 943Q441 943 449.5 931.5Q458 920 461 895Z"/>
<path transform="translate(1798 0)" d="M965 557Q965 519 943.5 498.0Q922 477 882 477H266V535H602Q639 535 639 571Q639 728 598.5 801.0Q558 874 499 874Q454 874 418.5 841.5Q383 809 363.0 741.0Q343 673 343 567Q343 371 428.5 276.5Q514 182 657 182Q748 182 813.0 221.5Q878 261 904 335Q916 350 924.0 355.0Q932 360 939 360Q950 360 955.5 349.5Q961 339 961 323Q959 228 902.5 149.0Q846 70 749.0 23.5Q652 -23 527 -23Q387 -23 278.0 35.0Q169 93 107.0 198.0Q45 303 45 442Q45 595 104.5 708.5Q164 822 275.5 885.0Q387 948 541 948Q675 948 770.0 897.0Q865 846 915.0 758.0Q965 670 965 557Z"/>
<path transform="translate(2749 0)" d="M551 -2H426Q402 -2 385.0 9.0Q368 20 359 46L96 803Q87 830 77.5 840.0Q68 850 55 853L22 862Q9 867 3.5 874.5Q-2 882 -2 893Q-2 908 8.0 916.0Q18 924 36 924H510Q528 924 538.0 916.0Q548 908 548 893Q548 882 541.5 874.5Q535 867 519 863L478 855Q451 849 446.0 830.0Q441 811 456 765L637 215L563 101L789 776L855 736L617 41Q607 16 589.5 7.0Q572 -2 551 -2ZM1176 -2H1053Q1031 -2 1013.0 9.0Q995 20 986 47L731 803Q722 831 713.0 841.0Q704 851 692 854L666 862Q652 867 646.5 874.5Q641 882 641 893Q641 924 679 924H1144Q1182 924 1182 893Q1182 882 1175.5 874.0Q1169 866 1156 864L1106 854Q1077 848 1072.0 829.5Q1067 811 1081 769L1259 213L1186 99L1383 732Q1402 792 1394.0 820.0Q1386 848 1353 855L1316 863Q1300 867 1293.0 874.5Q1286 882 1286 893Q1286 908 1296.5 916.0Q1307 924 1324 924H1558Q1576 924 1586.0 916.0Q1596 908 1596 893Q1596 883 1590.5 875.5Q1585 868 1569 863L1544 855Q1522 847 1504.0 819.5Q1486 792 1468 738L1242 42Q1234 17 1215.5 7.5Q1197 -2 1176 -2Z"/>
<path transform="translate(4276 0)" d="M266 -23Q212 -23 168.5 4.5Q125 32 99.5 77.0Q74 122 74 175Q74 229 99.5 273.0Q125 317 168.5 343.5Q212 370 266 370Q320 370 364.0 343.5Q408 317 433.5 273.0Q459 229 459 175Q459 122 433.5 77.0Q408 32 364.5 4.5Q321 -23 266 -23Z"/>
<path transform="translate(4749 0)" d="M731 142 724 146V1292Q724 1311 718.0 1319.0Q712 1327 699 1329L655 1332Q642 1335 636.5 1342.0Q631 1349 631 1360Q631 1373 638.0 1380.0Q645 1387 664 1394L927 1478Q956 1489 972.5 1493.5Q989 1498 1005 1498Q1029 1498 1041.0 1484.5Q1053 1471 1053 1450V127Q1053 101 1059.5 89.0Q1066 77 1081 72L1118 62Q1133 57 1139.0 49.5Q1145 42 1145 31Q1145 16 1135.5 8.0Q1126 0 1106 0H821Q783 0 757.0 25.0Q731 50 731 89ZM51 433Q51 590 112.0 705.5Q173 821 278.0 884.5Q383 948 514 948Q623 948 698.5 903.5Q774 859 825 773L766 732Q731 795 686.0 825.5Q641 856 585 856Q528 856 483.5 818.0Q439 780 414.0 694.5Q389 609 389 465Q389 336 412.0 255.0Q435 174 476.5 136.5Q518 99 571 99Q626 99 676.0 133.5Q726 168 769 241L806 200Q732 92 644.5 34.5Q557 -23 446 -23Q331 -23 241.5 33.5Q152 90 101.5 192.5Q51 295 51 433Z"/>
<path transform="translate(5867 0)" d="M619 114V131L598 126V778Q598 832 572.0 862.5Q546 893 500 893Q454 893 428.5 870.5Q403 848 403 815V719Q403 653 357.0 612.5Q311 572 231 572Q168 572 133.0 603.0Q98 634 98 692Q98 751 149.0 810.0Q200 869 301.0 908.0Q402 947 551 947Q740 947 832.5 873.0Q925 799 925 668V165Q925 139 936.0 125.5Q947 112 966 112Q984 112 996.5 122.5Q1009 133 1015 151Q1019 157 1023.0 160.0Q1027 163 1033 163Q1042 163 1046.5 156.5Q1051 150 1051 139Q1051 109 1026.5 71.0Q1002 33 951.0 5.0Q900 -23 819 -23Q722 -23 670.5 15.5Q619 54 619 114ZM53 205Q53 328 160.5 401.5Q268 475 482 475Q540 475 581.0 464.5Q622 454 652 437L633 393Q605 408 577.5 415.0Q550 422 516 422Q453 422 417.5 379.5Q382 337 382 257Q382 178 415.5 138.5Q449 99 502 99Q540 99 575.0 118.0Q610 137 632 168L650 127Q603 55 518.0 16.0Q433 -23 336 -23Q210 -23 131.5 41.0Q53 105 53 205Z"/>
<path transform="translate(6874 0)" d="M699 215 529 -135 131 749Q109 799 85.5 825.5Q62 852 28 861Q12 867 6.0 874.5Q0 882 0 893Q0 908 10.5 916.0Q21 924 39 924H535Q553 924 563.0 916.0Q573 908 573 893Q573 881 566.5 874.0Q560 867 544 863L500 854Q465 847 458.5 823.0Q452 799 474 748ZM508 -139 567 7 598 72 853 730Q875 786 866.0 812.5Q857 839 816 849L773 861Q757 865 750.0 873.0Q743 881 743 893Q743 908 753.0 916.0Q763 924 781 924H1046Q1064 924 1074.0 916.0Q1084 908 1084 893Q1084 883 1077.5 875.5Q1071 868 1056 861Q1008 847 982.0 821.5Q956 796 933 738L592 -128Q540 -261 498.5 -338.0Q457 -415 407.0 -447.5Q357 -480 275 -480Q164 -480 98.0 -417.5Q32 -355 32 -264Q32 -196 66.5 -158.0Q101 -120 155 -120Q207 -120 237.0 -151.0Q267 -182 287 -237L303 -281Q314 -314 331.0 -337.0Q348 -360 371 -360Q392 -360 410.5 -338.5Q429 -317 452.0 -268.5Q475 -220 508 -139Z"/>
</g></svg>